<svg xmlns="http://www.w3.org/2000/svg" xmlnsSvgjs="http://svgjs.com/svgjs" xmlnsXlink="http://www.w3.org/1999/xlink" width="64" height="64"><svg xmlns="http://www.w3.org/2000/svg" width="64" height="64" data-name="Layer 1" viewBox="0 0 64 64"><path fill="#fff" d="M44.61 4.82A2 2 0 0 0 42 5.77L18.45 56.6a1.93 1.93 0 0 0 .94 2.57 1.88 1.88 0 0 0 .57.17 1.93 1.93 0 0 0 2-1.11L45.55 7.4A2 2 0 0 0 44.61 4.82zM20.39 35.76a2 2 0 0 0 .19-1.47 2 2 0 0 0-.91-1.18L7.31 26a1 1 0 0 1-.52-.89 1 1 0 0 1 .51-.89l12.4-7.35a2 2 0 0 0 .88-1.19 1.93 1.93 0 0 0-1.39-2.35 1.66 1.66 0 0 0-.49-.07 1.92 1.92 0 0 0-1 .28L1 23.48a1.93 1.93 0 0 0 0 3.34l16.77 9.65A2 2 0 0 0 20.39 35.76zM63.05 37.48L46.28 27.54a2 2 0 0 0-1-.27 1.94 1.94 0 0 0-1 3.6l12.4 7.35a1 1 0 0 1 0 1.79L44.33 47.12a1.94 1.94 0 0 0-.72 2.64 2 2 0 0 0 2.65.72L63 40.83a1.94 1.94 0 0 0 0-3.35z" class="color010101 svgShape"/></svg></svg>