<?xml version="1.0" encoding="utf-8"?>
<svg xmlns="http://www.w3.org/2000/svg" xmlns:xlink="http://www.w3.org/1999/xlink" style="margin: auto; background: none; display: block; shape-rendering: auto; animation-play-state: running; animation-delay: 0s;" width="117px" height="117px" viewBox="0 0 100 100" preserveAspectRatio="xMidYMid">
<g transform="translate(50 50)" style="animation-play-state: running; animation-delay: 0s;">
<g style="animation-play-state: running; animation-delay: 0s;">
<animateTransform attributeName="transform" type="rotate" values="0;30" keyTimes="0;1" dur="0.1639344262295082s" repeatCount="indefinite" style="animation-play-state: running; animation-delay: 0s;"></animateTransform><path d="M29.491524206117255 -5.5 L37.491524206117255 -5.5 L37.491524206117255 5.5 L29.491524206117255 5.5 A30 30 0 0 1 28.29040915882124 9.982622382244216 L28.29040915882124 9.982622382244216 L35.21861238909675 13.982622382244216 L29.718612389096755 23.50890182387304 L22.790409158821245 19.50890182387304 A30 30 0 0 1 19.508901823873043 22.790409158821237 L19.508901823873043 22.790409158821237 L23.508901823873043 29.718612389096748 L13.98262238224422 35.21861238909675 L9.98262238224422 28.29040915882124 A30 30 0 0 1 5.5 29.491524206117255 L5.5 29.491524206117255 L5.5 37.491524206117255 L-5.499999999999997 37.491524206117255 L-5.499999999999997 29.491524206117255 A30 30 0 0 1 -9.98262238224421 28.290409158821245 L-9.98262238224421 28.290409158821245 L-13.98262238224421 35.218612389096755 L-23.50890182387304 29.71861238909675 L-19.50890182387304 22.79040915882124 A30 30 0 0 1 -22.790409158821234 19.508901823873053 L-22.790409158821234 19.508901823873053 L-29.71861238909674 23.508901823873057 L-35.21861238909675 13.982622382244223 L-28.29040915882124 9.982622382244221 A30 30 0 0 1 -29.491524206117255 5.500000000000009 L-29.491524206117255 5.500000000000009 L-37.491524206117255 5.50000000000001 L-37.491524206117255 -5.500000000000001 L-29.491524206117255 -5.500000000000002 A30 30 0 0 1 -28.290409158821245 -9.982622382244202 L-28.290409158821245 -9.982622382244202 L-35.218612389096755 -13.9826223822442 L-29.718612389096755 -23.50890182387304 L-22.790409158821245 -19.50890182387304 A30 30 0 0 1 -19.508901823873053 -22.79040915882123 L-19.508901823873053 -22.79040915882123 L-23.508901823873057 -29.718612389096737 L-13.982622382244227 -35.21861238909675 L-9.982622382244223 -28.29040915882124 A30 30 0 0 1 -5.500000000000011 -29.491524206117255 L-5.500000000000011 -29.491524206117255 L-5.500000000000012 -37.491524206117255 L5.499999999999998 -37.491524206117255 L5.5 -29.491524206117255 A30 30 0 0 1 9.982622382244188 -28.29040915882125 L9.982622382244188 -28.29040915882125 L13.982622382244182 -35.21861238909676 L23.508901823873018 -29.718612389096762 L19.508901823873025 -22.79040915882125 A30 30 0 0 1 22.79040915882123 -19.508901823873053 L22.79040915882123 -19.508901823873053 L29.718612389096737 -23.508901823873057 L35.21861238909675 -13.982622382244227 L28.29040915882124 -9.982622382244225 A30 30 0 0 1 29.491524206117255 -5.500000000000013 M0 -20A20 20 0 1 0 0 20 A20 20 0 1 0 0 -20" fill="#62595a" style="animation-play-state: running; animation-delay: 0s;"></path></g></g>
<!-- [ldio] generated by https://loading.io/ --></svg>